<svg width="277" height="194" viewBox="0 0 277 194" fill="none" xmlns="http://www.w3.org/2000/svg">
<g clip-path="url(#clip0_46_11060)">
<path d="M225.487 128.419C225.796 128.019 226.013 127.555 226.123 127.062C226.233 126.568 226.234 126.057 226.125 125.563C226.015 125.07 225.799 124.606 225.491 124.204C225.183 123.803 224.791 123.474 224.342 123.241L225.026 115.367L220.338 113.785L219.528 124.918C219.186 125.697 219.141 126.575 219.404 127.385C219.666 128.194 220.216 128.88 220.95 129.312C221.684 129.743 222.552 129.891 223.388 129.726C224.223 129.562 224.97 129.097 225.486 128.42L225.487 128.419Z" fill="#D4C2A8"/>
<path d="M248.879 189.634H244.66L242.653 173.369H248.882L248.879 189.634Z" fill="#D4C2A8"/>
<path d="M241.645 188.429H249.785V193.549H236.521C236.521 192.191 237.061 190.889 238.022 189.928C238.983 188.968 240.286 188.429 241.645 188.429Z" fill="#4B1979"/>
<path d="M239.3 178.842L235.203 179.848L229.367 164.533L235.416 163.048L239.3 178.842Z" fill="#D4C2A8"/>
<path d="M232.045 179.251L239.948 177.307L241.173 182.279L228.293 185.446C227.969 184.128 228.181 182.734 228.885 181.572C229.588 180.411 230.725 179.575 232.045 179.251Z" fill="#4B1979"/>
<path d="M243.941 184.447C243.556 184.448 243.183 184.306 242.897 184.049C242.61 183.791 242.43 183.436 242.39 183.053L237.535 137.854L233.309 151.676L239.295 173.265C239.398 173.635 239.36 174.03 239.189 174.374C239.019 174.718 238.727 174.987 238.37 175.129L233.611 177.031C233.415 177.109 233.205 177.147 232.995 177.142C232.784 177.137 232.576 177.089 232.384 177.002C232.192 176.915 232.02 176.789 231.877 176.633C231.735 176.478 231.626 176.295 231.557 176.096L224.222 155.07C223.419 152.774 223.063 150.346 223.175 147.917L224.199 125.226L251.164 126.366L250.743 182.506C250.738 182.897 250.587 183.272 250.32 183.558C250.053 183.843 249.689 184.019 249.299 184.05L244.062 184.445C244.022 184.446 243.981 184.447 243.941 184.447Z" fill="#4B1979"/>
<path d="M239.475 75.0088C244.483 75.0088 248.542 70.9532 248.542 65.9502C248.542 60.9473 244.483 56.8916 239.475 56.8916C234.467 56.8916 230.408 60.9473 230.408 65.9502C230.408 70.9532 234.467 75.0088 239.475 75.0088Z" fill="#D4C2A8"/>
<path d="M246.143 127.843C243.755 127.843 240.79 127.648 237.72 127.446C233.526 127.17 229.19 126.885 225.952 127.072C225.515 127.116 225.074 127.046 224.671 126.871C224.269 126.696 223.918 126.421 223.652 126.071C220.315 121.803 225.461 105.156 225.682 104.45L229.87 85.8363L230.05 85.8768L229.87 85.8363C230.793 81.7423 233.736 78.7224 237.553 77.9553C241.127 77.2383 244.584 78.6675 246.801 81.7818C246.918 81.947 247.036 82.1166 247.153 82.2904C254.371 92.9704 250.288 119.504 250.015 121.215C250.396 121.672 252.458 124.252 251.891 126.044C251.661 126.773 251.035 127.27 250.03 127.519C248.75 127.772 247.446 127.88 246.142 127.842L246.143 127.843Z" fill="#A06ECE"/>
<path d="M226.098 127.851C225.277 127.851 224.169 127.548 222.676 126.929C222.034 126.662 220.08 125.85 222.452 105.142C223.617 94.9695 225.286 84.8682 225.303 84.7675L225.318 84.6701L225.408 84.6295C225.451 84.61 229.714 82.6582 230.455 80.1498C230.48 80.063 230.508 79.9788 230.541 79.8972C230.745 79.3396 231.157 78.8823 231.69 78.6206C232.224 78.3589 232.838 78.3131 233.404 78.4927C234.002 78.6356 234.524 79.0005 234.863 79.5134C235.201 80.0263 235.332 80.6487 235.228 81.2545C234.97 82.8905 234.474 84.48 233.755 85.9724C231.749 90.1069 230.39 101.068 230.377 101.178C230.3 102.114 228.48 124.293 228.13 125.976C228.007 126.563 227.782 127.283 227.121 127.632C226.804 127.788 226.453 127.864 226.099 127.853L226.098 127.851Z" fill="#4B1979"/>
<path d="M236.004 127.001C235.838 127.001 235.677 126.946 235.546 126.844C232.879 124.819 237.196 100.27 239.755 91.8002C240.268 90.1036 240.724 88.6516 241.112 87.4828C241.819 85.3855 242.312 83.2223 242.585 81.0262C242.726 79.8364 243.032 79.157 243.521 78.9486C243.861 78.8037 244.26 78.9021 244.71 79.2411C247.075 79.1245 249.373 80.0894 251.503 81.1519L253.419 82.1072L255.57 120.151C255.509 122.579 250.719 124.293 248.63 124.402C245.274 124.578 239.249 125.124 236.595 126.803C236.421 126.924 236.216 126.992 236.004 127L236.004 127.001Z" fill="#4B1979"/>
<path d="M224.022 119.863C223.99 119.863 223.958 119.863 223.926 119.86L219.582 119.593C219.366 119.58 219.154 119.522 218.962 119.423C218.769 119.323 218.599 119.185 218.463 119.017C218.327 118.848 218.227 118.654 218.171 118.445C218.114 118.236 218.101 118.017 218.134 117.803L220.099 104.792L223.8 86.5349C223.891 86.0852 224.076 85.6597 224.342 85.2859C224.609 84.9121 224.951 84.5984 225.346 84.3651C225.742 84.1318 226.182 83.9841 226.638 83.9316C227.094 83.8792 227.556 83.9231 227.995 84.0605C228.744 84.2993 229.383 84.7978 229.796 85.4659C230.21 86.1341 230.37 86.9279 230.249 87.7041L227.309 105.998L225.569 118.518C225.515 118.89 225.33 119.231 225.046 119.478C224.761 119.725 224.398 119.862 224.022 119.863H224.022Z" fill="#4B1979"/>
<path d="M238.863 105.62C239.128 105.19 239.484 104.822 239.907 104.544C240.329 104.266 240.808 104.083 241.308 104.01C241.809 103.936 242.32 103.973 242.805 104.118C243.289 104.263 243.737 104.512 244.114 104.849L251.238 101.411L254.384 105.226L244.257 109.939C243.649 110.536 242.844 110.89 241.993 110.933C241.142 110.976 240.305 110.706 239.64 110.173C238.975 109.641 238.529 108.884 238.386 108.044C238.242 107.205 238.412 106.343 238.863 105.62Z" fill="#D4C2A8"/>
<path d="M248.758 109.312C248.408 109.312 248.067 109.194 247.792 108.977C247.516 108.76 247.322 108.457 247.239 108.117L246.206 103.82C246.127 103.497 246.154 103.157 246.283 102.85C246.412 102.543 246.636 102.286 246.922 102.116L253.161 98.3853L249.971 86.718C249.695 85.7189 249.822 84.6516 250.324 83.7445C250.826 82.8374 251.663 82.1626 252.657 81.8647C253.651 81.5667 254.721 81.6692 255.64 82.1502C256.559 82.6313 257.253 83.4526 257.574 84.4384L261.095 95.1803C261.528 96.4897 261.531 97.9028 261.105 99.2143C260.679 100.526 259.845 101.667 258.725 102.473L249.673 109.016C249.407 109.208 249.087 109.312 248.758 109.312Z" fill="#4B1979"/>
<path d="M181.348 0H6.65778C5.02523 0.00195212 3.46011 0.65073 2.30573 1.80402C1.15134 2.95731 0.501954 4.52094 0.5 6.15194V24.9323C0.501954 26.5633 1.15134 28.127 2.30573 29.2802C3.46011 30.4335 5.02523 31.0823 6.65778 31.0843H181.348C182.98 31.0823 184.545 30.4335 185.7 29.2802C186.854 28.127 187.503 26.5633 187.505 24.9323V6.15194C187.503 4.52094 186.854 2.95731 185.7 1.80402C184.545 0.65073 182.98 0.00195212 181.348 0ZM186.857 24.9323C186.855 26.3915 186.274 27.7903 185.241 28.8221C184.208 29.8539 182.808 30.4345 181.348 30.4366H6.65778C5.19722 30.4345 3.7971 29.8539 2.76434 28.8221C1.73157 27.7903 1.15041 26.3915 1.14826 24.9323V6.15194C1.15041 4.69277 1.73157 3.29398 2.76434 2.26219C3.7971 1.2304 5.19722 0.649795 6.65778 0.647649H181.348C182.808 0.649795 184.208 1.2304 185.241 2.26219C186.274 3.29398 186.855 4.69277 186.857 6.15194V24.9323Z" fill="#3F3D56"/>
<path d="M181.348 75.4433H6.65778C5.02523 75.4413 3.46011 74.7925 2.30573 73.6392C1.15134 72.486 0.501954 70.9223 0.5 69.2913V50.5113C0.501954 48.8803 1.15134 47.3167 2.30573 46.1634C3.46011 45.0101 5.02523 44.3613 6.65778 44.3594H181.348C182.98 44.3613 184.545 45.0101 185.7 46.1634C186.854 47.3167 187.503 48.8803 187.505 50.5113V69.2913C187.503 70.9223 186.854 72.486 185.7 73.6392C184.545 74.7925 182.98 75.4413 181.348 75.4433ZM6.65778 45.007C5.19707 45.0087 3.79667 45.5891 2.7638 46.621C1.73093 47.6529 1.14992 49.052 1.14826 50.5113V69.2913C1.14963 70.7508 1.7305 72.1502 2.76341 73.1823C3.79631 74.2145 5.19688 74.7951 6.65778 74.7967H181.348C182.808 74.7952 184.209 74.2148 185.242 73.1829C186.275 72.1509 186.856 70.7518 186.857 69.2924V50.5113C186.856 49.052 186.275 47.6529 185.242 46.621C184.209 45.5891 182.809 45.0087 181.348 45.007H6.65778Z" fill="#CCCCCC"/>
<path d="M181.348 119.803H6.65778C5.02523 119.801 3.46011 119.152 2.30573 117.999C1.15134 116.845 0.501954 115.282 0.5 113.651V94.8707C0.501954 93.2397 1.15134 91.6761 2.30573 90.5228C3.46011 89.3695 5.02523 88.7207 6.65778 88.7188H181.348C182.98 88.7207 184.545 89.3695 185.7 90.5228C186.854 91.6761 187.503 93.2397 187.505 94.8707V113.651C187.503 115.282 186.854 116.845 185.7 117.999C184.545 119.152 182.98 119.801 181.348 119.803ZM6.65778 89.3649C5.19707 89.3666 3.79667 89.947 2.7638 90.9789C1.73093 92.0108 1.14992 93.4099 1.14826 94.8692V113.649C1.14983 115.109 1.73079 116.508 2.76367 117.54C3.79656 118.572 5.19701 119.152 6.65778 119.154H181.348C182.808 119.152 184.209 118.572 185.242 117.54C186.275 116.508 186.856 115.109 186.857 113.65V94.8707C186.856 93.411 186.275 92.0115 185.242 90.9793C184.209 89.9471 182.809 89.3665 181.348 89.3649H6.65778Z" fill="#CCCCCC"/>
<path d="M30.2622 26.2502C28.1424 26.2502 26.0703 25.6222 24.3077 24.4456C22.5452 23.2691 21.1715 21.5968 20.3603 19.6402C19.5491 17.6837 19.3368 15.5307 19.7504 13.4536C20.1639 11.3766 21.1847 9.46864 22.6836 7.97116C24.1825 6.47367 26.0922 5.45387 28.1713 5.04071C30.2503 4.62755 32.4053 4.8396 34.3637 5.65003C36.3222 6.46047 37.996 7.83289 39.1737 9.59375C40.3514 11.3546 40.98 13.4248 40.98 15.5426C40.98 18.3824 39.8508 21.1059 37.8409 23.114C35.8309 25.1221 33.1048 26.2502 30.2622 26.2502Z" fill="#A06ECE"/>
<path d="M165.523 24.2843H51.1171C50.4294 24.2843 49.7699 24.0114 49.2837 23.5256C48.7974 23.0398 48.5242 22.381 48.5242 21.6939C48.5242 21.0069 48.7974 20.348 49.2837 19.8622C49.7699 19.3764 50.4294 19.1035 51.1171 19.1035H165.523C166.211 19.1035 166.871 19.3764 167.357 19.8622C167.843 20.348 168.116 21.0069 168.116 21.6939C168.116 22.381 167.843 23.0398 167.357 23.5256C166.871 24.0114 166.211 24.2843 165.523 24.2843Z" fill="#CCCCCC"/>
<path d="M128.25 13.2756H51.1145C50.4269 13.2756 49.7674 13.0026 49.2811 12.5168C48.7948 12.031 48.5217 11.3722 48.5217 10.6851C48.5217 9.99812 48.7948 9.33924 49.2811 8.85344C49.7674 8.36764 50.4269 8.09473 51.1145 8.09473H128.25C128.938 8.09473 129.597 8.36764 130.083 8.85344C130.57 9.33924 130.843 9.99812 130.843 10.6851C130.843 11.3722 130.57 12.031 130.083 12.5168C129.597 13.0026 128.938 13.2756 128.25 13.2756Z" fill="#CCCCCC"/>
<path d="M30.2622 70.6086C28.1424 70.6086 26.0703 69.9806 24.3077 68.804C22.5452 67.6275 21.1715 65.9552 20.3603 63.9986C19.5491 62.0421 19.3368 59.8891 19.7504 57.812C20.1639 55.735 21.1847 53.827 22.6836 52.3296C24.1825 50.8321 26.0922 49.8123 28.1713 49.3991C30.2503 48.986 32.4053 49.198 34.3637 50.0084C36.3222 50.8189 37.996 52.1913 39.1737 53.9521C40.3514 55.713 40.98 57.7832 40.98 59.901C40.98 62.7408 39.8508 65.4643 37.8409 67.4724C35.8309 69.4805 33.1048 70.6086 30.2622 70.6086Z" fill="#E6E6E6"/>
<path d="M165.523 68.6437H51.1171C50.4294 68.6437 49.7699 68.3708 49.2837 67.885C48.7974 67.3992 48.5242 66.7403 48.5242 66.0533C48.5242 65.3663 48.7974 64.7074 49.2837 64.2216C49.7699 63.7358 50.4294 63.4629 51.1171 63.4629H165.523C166.211 63.4629 166.871 63.7358 167.357 64.2216C167.843 64.7074 168.116 65.3663 168.116 66.0533C168.116 66.7403 167.843 67.3992 167.357 67.885C166.871 68.3708 166.211 68.6437 165.523 68.6437Z" fill="#E6E6E6"/>
<path d="M128.25 57.6349H51.1145C50.4269 57.6349 49.7674 57.362 49.2811 56.8762C48.7948 56.3904 48.5217 55.7315 48.5217 55.0445C48.5217 54.3575 48.7948 53.6986 49.2811 53.2128C49.7674 52.727 50.4269 52.4541 51.1145 52.4541H128.25C128.938 52.4541 129.597 52.727 130.083 53.2128C130.57 53.6986 130.843 54.3575 130.843 55.0445C130.843 55.7315 130.57 56.3904 130.083 56.8762C129.597 57.362 128.938 57.6349 128.25 57.6349Z" fill="#E6E6E6"/>
<path d="M30.2622 114.969C28.1424 114.969 26.0703 114.341 24.3077 113.164C22.5452 111.988 21.1715 110.316 20.3603 108.359C19.5491 106.402 19.3368 104.249 19.7504 102.172C20.1639 100.095 21.1847 98.1874 22.6836 96.6899C24.1825 95.1924 26.0922 94.1726 28.1713 93.7595C30.2503 93.3463 32.4053 93.5584 34.3637 94.3688C36.3222 95.1792 37.996 96.5516 39.1737 98.3125C40.3514 100.073 40.98 102.144 40.98 104.261C40.98 107.101 39.8508 109.825 37.8409 111.833C35.8309 113.841 33.1048 114.969 30.2622 114.969Z" fill="#E6E6E6"/>
<path d="M165.523 113.003H51.1171C50.4294 113.003 49.7699 112.73 49.2837 112.244C48.7974 111.759 48.5242 111.1 48.5242 110.413C48.5242 109.726 48.7974 109.067 49.2837 108.581C49.7699 108.095 50.4294 107.822 51.1171 107.822H165.523C166.211 107.822 166.871 108.095 167.357 108.581C167.843 109.067 168.116 109.726 168.116 110.413C168.116 111.1 167.843 111.759 167.357 112.244C166.871 112.73 166.211 113.003 165.523 113.003Z" fill="#E6E6E6"/>
<path d="M128.25 101.994H51.1145C50.4269 101.994 49.7674 101.721 49.2811 101.236C48.7948 100.75 48.5217 100.091 48.5217 99.4039C48.5217 98.7169 48.7948 98.058 49.2811 97.5722C49.7674 97.0864 50.4269 96.8135 51.1145 96.8135H128.25C128.938 96.8135 129.597 97.0864 130.083 97.5722C130.57 98.058 130.843 98.7169 130.843 99.4039C130.843 100.091 130.57 100.75 130.083 101.236C129.597 101.721 128.938 101.994 128.25 101.994Z" fill="#E6E6E6"/>
<path d="M29.7151 19.3085C29.4489 19.3091 29.1898 19.2232 28.9768 19.0636L28.9635 19.0536L26.1855 16.9307C26.0568 16.8322 25.9488 16.7093 25.8677 16.569C25.7866 16.4288 25.7339 16.274 25.7127 16.1134C25.6914 15.9529 25.7021 15.7897 25.7439 15.6332C25.7858 15.4767 25.8582 15.33 25.9568 15.2015C26.0554 15.073 26.1784 14.9651 26.3188 14.884C26.4592 14.803 26.6141 14.7503 26.7749 14.7291C26.9356 14.7079 27.0989 14.7185 27.2555 14.7604C27.4121 14.8022 27.559 14.8745 27.6876 14.973L29.487 16.3517L33.7387 10.8098C33.9379 10.5504 34.232 10.3806 34.5564 10.3378C34.8808 10.295 35.2089 10.3826 35.4687 10.5815L35.4425 10.6183L35.4694 10.5815C35.7288 10.7807 35.8985 11.0746 35.9412 11.3987C35.984 11.7227 35.8964 12.0505 35.6976 12.3101L30.6964 18.8257C30.5805 18.9756 30.4317 19.0968 30.2614 19.1799C30.0911 19.263 29.9039 19.3059 29.7144 19.3052L29.7151 19.3085Z" fill="white"/>
<path d="M276.131 194H203.035C202.937 194 202.843 193.961 202.774 193.892C202.705 193.823 202.666 193.729 202.666 193.632C202.666 193.534 202.705 193.44 202.774 193.371C202.843 193.302 202.937 193.263 203.035 193.263H276.131C276.229 193.263 276.323 193.302 276.392 193.371C276.461 193.44 276.5 193.534 276.5 193.632C276.5 193.729 276.461 193.823 276.392 193.892C276.323 193.961 276.229 194 276.131 194Z" fill="#CCCCCC"/>
<path d="M242.808 68.3649C242.808 68.3649 241.705 62.2697 239.194 62.998C236.683 63.7262 230.222 64.4713 230.21 61.6008C230.198 58.7303 236.292 56.193 239.885 56.5364C243.478 56.8798 249.588 57.9304 249.252 63.3141C248.982 66.7047 247.933 69.9876 246.187 72.9071L242.808 68.3649Z" fill="#4B1979"/>
</g>
<defs>
<clipPath id="clip0_46_11060">
<rect width="276" height="194" fill="white" transform="translate(0.5)"/>
</clipPath>
</defs>
</svg>
